# xmcd
#
# Track frame offsets: 
#        182
#        5725
#        21465
#        36607
#        47870
#        64802
#        76957
#        89910
#        100892
#        111980
#        126607
#        137270
#
# Disc length: 2007 seconds
#
# Revision: 4
# Processed by: cddbd v1.5.2PL0 Copyright (c) Steve Scherf et al.
# Submitted via: ExactAudioCopy v0.95b4
#
DISCID=b307d50c
DTITLE=America - Holiday
DYEAR=1974
DGENRE=Rock
TTITLE0=Miniature
TTITLE1=Tin Man
TTITLE2=Another Try
TTITLE3=Lonely People
TTITLE4=Glad To See You
TTITLE5=Mad Dog
TTITLE6=Hollywood
TTITLE7=Baby It's Up To You
TTITLE8=You
TTITLE9=Old Man Took
TTITLE10=What Does It Matter
TTITLE11=In The Country
EXTD=ID3G:   2
EXTT0=
EXTT1=
EXTT2=
EXTT3=
EXTT4=
EXTT5=
EXTT6=
EXTT7=
EXTT8=
EXTT9=
EXTT10=
EXTT11=
PLAYORDER=
